<svg width="115" height="41" viewBox="0 0 115 41" fill="none" xmlns="http://www.w3.org/2000/svg">
<path d="M25.9555 26.4218C25.1135 25.3359 24.115 24.5721 22.8819 24.3006C23.2776 23.3942 23.5537 22.5291 23.7285 21.7101C23.7285 21.7101 23.7285 21.7101 23.7285 21.7055C23.7423 21.6457 23.7561 21.5813 23.7653 21.5215C23.8666 21.0706 24.184 19.9663 24.8834 19.773C25.431 19.6534 26.0706 19.7776 26.3788 20.7945C26.8896 22.5015 25.3942 24.9126 25.3942 24.9126C25.3942 24.9126 27.2485 23.4724 27.2485 21.2684C27.2485 19.1702 25.3712 18.2868 23.9586 19.1702C23.7377 13.0598 17.7515 10.0966 17.7515 10.0966V12.0706C16.0307 10.5245 14.6733 8.82669 13.6242 7C12.5752 8.82669 11.2178 10.5245 9.49693 12.0706V10.0966C9.49693 10.0966 3.51074 13.0598 3.28988 19.1702C1.8773 18.2868 0 19.1702 0 21.2684C0 23.4724 1.8589 24.9126 1.8589 24.9126C1.8589 24.9126 0.363497 22.4969 0.874233 20.7945C1.17791 19.7776 1.82209 19.6534 2.36963 19.773C3.06902 19.9663 3.3865 21.0706 3.48773 21.5215C3.50153 21.5813 3.51074 21.6457 3.52454 21.7055C3.52454 21.7101 3.52454 21.7101 3.52454 21.7101C3.61196 22.1196 3.72699 22.5383 3.86503 22.9709C4.00307 23.4034 4.17331 23.8451 4.37117 24.3006C3.13804 24.5721 2.13957 25.3359 1.30215 26.4218C2.14417 26.2699 2.94018 26.3804 3.69018 26.7991C2.91718 27.2454 2.30061 27.9126 1.76687 28.7224C1.76687 28.7224 4.39877 29.2101 5.85736 30.6319C7.24693 31.9893 9.75 34.0046 13.1181 33.9954V34H14.158V33.9954C17.5215 34 20.0199 31.9893 21.4095 30.6319C22.8681 29.2055 25.5 28.7224 25.5 28.7224C24.9663 27.9172 24.3497 27.2454 23.5767 26.7991C24.3175 26.3758 25.1135 26.2653 25.9555 26.4218ZM18.9847 26.5552C18.9847 26.5552 21.0552 27.6503 19.2653 29.8543C18.2945 31.046 16.7255 31.6166 15.4877 31.8926C14.25 32.1549 13.0077 32.1549 11.7653 31.8926C10.5276 31.6212 8.95859 31.046 7.98773 29.8543C6.19785 27.6503 8.26841 26.5552 8.26841 26.5552C3.69479 23.2745 5.65031 18.2684 8.91258 18.0844C12.1794 17.9003 13.6242 20.4954 13.6242 20.4954C13.6242 20.4954 15.069 17.9003 18.3313 18.0844C21.6028 18.2684 23.5583 23.2745 18.9847 26.5552Z" fill="white"/>
<path d="M19.2654 29.8497C18.2945 31.0414 16.7255 31.612 15.4878 31.888C14.25 32.1503 13.0077 32.1503 11.7654 31.888C10.5277 31.6166 8.95863 31.0414 7.98778 29.8497C6.1979 27.6457 8.26845 26.5506 8.26845 26.5506C3.69483 23.2699 5.65035 18.2638 8.91262 18.0798C12.1795 17.8957 13.6243 20.4908 13.6243 20.4908C13.6243 20.4908 15.0691 17.8957 18.3313 18.0798C21.5982 18.2592 23.5537 23.2653 18.9801 26.5506C18.9847 26.5552 21.0553 27.6457 19.2654 29.8497Z" fill="#102B1F"/>
<path d="M10.5369 29.0721C12.3636 30.3236 15.1841 30.2408 16.7209 28.5475C16.9372 28.3129 17.1166 28.046 17.2593 27.7699C16.7347 28.1196 16.2378 28.4325 15.704 28.6534C14.066 29.3574 12.2945 29.2699 10.5369 29.0721Z" fill="white"/>
<path d="M11.586 22.1932C11.586 21.7423 11.4157 21.3328 11.1443 21.0199C11.1673 21.1028 11.1765 21.1856 11.1765 21.2776C11.1765 21.8344 10.7255 22.2899 10.1642 22.2899C9.60284 22.2899 9.15192 21.839 9.15192 21.2776C9.15192 20.9141 9.34057 20.6012 9.63045 20.4218C8.72401 20.5092 8.02002 21.2684 8.02002 22.1978C8.02002 23.1825 8.82064 23.9831 9.8053 23.9831C10.79 23.9785 11.586 23.1779 11.586 22.1932Z" fill="white"/>
<path d="M18.8283 21.273C18.8283 21.8298 18.3774 22.2853 17.816 22.2853C17.2593 22.2853 16.8038 21.8344 16.8038 21.273C16.8038 20.9095 16.9924 20.5966 17.2823 20.4172C16.3759 20.5046 15.6719 21.2638 15.6719 22.1933C15.6719 23.1779 16.4725 23.9785 17.4571 23.9785C18.4418 23.9785 19.2424 23.1779 19.2424 22.1933C19.2424 21.7423 19.0722 21.3328 18.8007 21.0199C18.8145 21.1028 18.8283 21.1856 18.8283 21.273Z" fill="white"/>
<path d="M12.6581 26.1227C12.963 26.1227 13.2103 25.927 13.2103 25.6856C13.2103 25.4442 12.963 25.2485 12.6581 25.2485C12.3532 25.2485 12.106 25.4442 12.106 25.6856C12.106 25.927 12.3532 26.1227 12.6581 26.1227Z" fill="white"/>
<path d="M14.5998 26.1227C14.9047 26.1227 15.1519 25.927 15.1519 25.6856C15.1519 25.4442 14.9047 25.2485 14.5998 25.2485C14.2948 25.2485 14.0476 25.4442 14.0476 25.6856C14.0476 25.927 14.2948 26.1227 14.5998 26.1227Z" fill="white"/>
<path d="M50.9648 17.3622H48.3085C48.2328 16.9266 48.0931 16.5407 47.8895 16.2045C47.6859 15.8636 47.4326 15.5748 47.1296 15.3381C46.8265 15.1013 46.4809 14.9238 46.0926 14.8054C45.7091 14.6823 45.2948 14.6207 44.8497 14.6207C44.059 14.6207 43.3582 14.8196 42.7474 15.2173C42.1367 15.6103 41.6584 16.188 41.3128 16.9503C40.9671 17.7079 40.7943 18.6335 40.7943 19.7273C40.7943 20.84 40.9671 21.7775 41.3128 22.5398C41.6632 23.2973 42.1414 23.8703 42.7474 24.2585C43.3582 24.642 44.0566 24.8338 44.8426 24.8338C45.2782 24.8338 45.6854 24.777 46.0642 24.6634C46.4477 24.545 46.791 24.3722 47.094 24.1449C47.4018 23.9176 47.6599 23.6383 47.8682 23.3068C48.0813 22.9754 48.228 22.5966 48.3085 22.1705L50.9648 22.1847C50.8653 22.8759 50.6499 23.5246 50.3185 24.1307C49.9918 24.7367 49.5633 25.2718 49.033 25.7358C48.5027 26.1951 47.8824 26.5549 47.1722 26.8153C46.4619 27.071 45.6736 27.1989 44.8071 27.1989C43.5287 27.1989 42.3876 26.9029 41.3838 26.3111C40.38 25.7192 39.5893 24.8646 39.0117 23.7472C38.434 22.6297 38.1452 21.2898 38.1452 19.7273C38.1452 18.16 38.4364 16.8201 39.0188 15.7074C39.6011 14.59 40.3942 13.7353 41.398 13.1435C42.4018 12.5516 43.5382 12.2557 44.8071 12.2557C45.6168 12.2557 46.3696 12.3693 47.0656 12.5966C47.7617 12.8239 48.3819 13.1577 48.9264 13.598C49.4709 14.0336 49.9184 14.5687 50.2688 15.2031C50.6239 15.8329 50.8559 16.5526 50.9648 17.3622ZM55.8352 20.608V27H53.2641V12.4545H55.7783V17.9446H55.9062C56.1619 17.3291 56.5572 16.8437 57.0923 16.4886C57.632 16.1288 58.3186 15.9489 59.1519 15.9489C59.9095 15.9489 60.57 16.1075 61.1335 16.4247C61.6969 16.742 62.1325 17.206 62.4403 17.8168C62.7528 18.4276 62.909 19.1733 62.909 20.054V27H60.338V20.4517C60.338 19.7178 60.1486 19.1473 59.7698 18.7401C59.3958 18.3281 58.8702 18.1222 58.1931 18.1222C57.7386 18.1222 57.3314 18.2216 56.9715 18.4205C56.6164 18.6146 56.3371 18.8963 56.1335 19.2656C55.9346 19.6349 55.8352 20.0824 55.8352 20.608ZM65.5298 27V16.0909H68.1008V27H65.5298ZM66.8224 14.5426C66.4152 14.5426 66.0648 14.4077 65.7712 14.1378C65.4777 13.8632 65.3309 13.5341 65.3309 13.1506C65.3309 12.7623 65.4777 12.4332 65.7712 12.1634C66.0648 11.8887 66.4152 11.7514 66.8224 11.7514C67.2343 11.7514 67.5847 11.8887 67.8735 12.1634C68.1671 12.4332 68.3139 12.7623 68.3139 13.1506C68.3139 13.5341 68.1671 13.8632 67.8735 14.1378C67.5847 14.4077 67.2343 14.5426 66.8224 14.5426ZM70.7446 27V16.0909H73.202V17.9446H73.3298C73.5571 17.3196 73.9335 16.8319 74.4591 16.4815C74.9847 16.1264 75.612 15.9489 76.3412 15.9489C77.0798 15.9489 77.7025 16.1288 78.2091 16.4886C78.7205 16.8437 79.0803 17.3291 79.2886 17.9446H79.4023C79.6438 17.3385 80.051 16.8556 80.6239 16.4957C81.2015 16.1312 81.8857 15.9489 82.6764 15.9489C83.6802 15.9489 84.4993 16.2661 85.1338 16.9006C85.7683 17.535 86.0855 18.4607 86.0855 19.6776V27H83.5074V20.0753C83.5074 19.3982 83.3275 18.9034 82.9676 18.5909C82.6078 18.2737 82.1674 18.1151 81.6466 18.1151C81.0263 18.1151 80.541 18.3092 80.1906 18.6974C79.845 19.081 79.6722 19.5805 79.6722 20.196V27H77.1509V19.9688C77.1509 19.4053 76.9804 18.9555 76.6395 18.6193C76.3033 18.2831 75.863 18.1151 75.3185 18.1151C74.9492 18.1151 74.613 18.2098 74.3099 18.3991C74.0069 18.5838 73.7654 18.8466 73.5855 19.1875C73.4056 19.5237 73.3156 19.9167 73.3156 20.3665V27H70.7446ZM88.6938 31.0909V16.0909H91.2222V17.8949H91.3714C91.504 17.6297 91.691 17.348 91.9325 17.0497C92.1739 16.7467 92.5006 16.4886 92.9126 16.2756C93.3245 16.0578 93.8501 15.9489 94.4893 15.9489C95.3321 15.9489 96.092 16.1643 96.7691 16.5952C97.4509 17.0213 97.9907 17.6534 98.3884 18.4915C98.7909 19.3248 98.9921 20.3475 98.9921 21.5597C98.9921 22.7576 98.7956 23.7756 98.4026 24.6136C98.0096 25.4517 97.4746 26.0909 96.7975 26.5312C96.1204 26.9716 95.3534 27.1918 94.4964 27.1918C93.8714 27.1918 93.3529 27.0876 92.941 26.8793C92.5291 26.6709 92.1976 26.42 91.9467 26.1264C91.7005 25.8281 91.5087 25.5464 91.3714 25.2812H91.2648V31.0909H88.6938ZM91.2151 21.5455C91.2151 22.2509 91.3146 22.8688 91.5134 23.3991C91.717 23.9295 92.0082 24.3437 92.387 24.642C92.7705 24.9356 93.2345 25.0824 93.7791 25.0824C94.3472 25.0824 94.8231 24.9309 95.2066 24.6278C95.5901 24.3201 95.879 23.901 96.0731 23.3707C96.272 22.8357 96.3714 22.2273 96.3714 21.5455C96.3714 20.8684 96.2743 20.267 96.0802 19.7415C95.8861 19.2159 95.5972 18.804 95.2137 18.5057C94.8302 18.2074 94.352 18.0582 93.7791 18.0582C93.2298 18.0582 92.7634 18.2027 92.3799 18.4915C91.9964 18.7803 91.7052 19.1851 91.5063 19.706C91.3122 20.2268 91.2151 20.84 91.2151 21.5455ZM102.943 12.4545L106.146 17.7812H106.26L109.477 12.4545H112.481L108 19.7273L112.552 27H109.498L106.26 21.7088H106.146L102.907 27H99.8675L104.463 19.7273L99.9243 12.4545H102.943Z" fill="white"/>
</svg>
