<svg width="23" height="22" viewBox="0 0 23 22" fill="none" xmlns="http://www.w3.org/2000/svg">
<path d="M21.1489 15.8252C20.4629 14.9404 19.6493 14.318 18.6445 14.0968C18.9669 13.3582 19.1919 12.6534 19.3344 11.986C19.3344 11.986 19.3344 11.986 19.3344 11.9823C19.3456 11.9335 19.3569 11.8811 19.3644 11.8323C19.4468 11.4649 19.7055 10.5651 20.2754 10.4076C20.7215 10.3102 21.2427 10.4114 21.4939 11.2399C21.91 12.6309 20.6915 14.5954 20.6915 14.5954C20.6915 14.5954 22.2025 13.4219 22.2025 11.6261C22.2025 9.9165 20.6728 9.19666 19.5218 9.9165C19.3419 4.93763 14.4642 2.52318 14.4642 2.52318V4.13156C13.062 2.87185 11.956 1.48841 11.1012 0C10.2464 1.48841 9.14042 2.87185 7.73824 4.13156V2.52318C7.73824 2.52318 2.8606 4.93763 2.68064 9.9165C1.52965 9.19666 0 9.9165 0 11.6261C0 13.4219 1.51466 14.5954 1.51466 14.5954C1.51466 14.5954 0.296183 12.6271 0.712338 11.2399C0.959782 10.4114 1.48466 10.3102 1.93081 10.4076C2.50068 10.5651 2.75937 11.4649 2.84185 11.8323C2.8531 11.8811 2.8606 11.9335 2.87185 11.9823C2.87185 11.986 2.87185 11.986 2.87185 11.986C2.94308 12.3197 3.03681 12.6609 3.14928 13.0133C3.26176 13.3657 3.40048 13.7256 3.56169 14.0968C2.55692 14.318 1.74335 14.9404 1.06101 15.8252C1.7471 15.7014 2.39571 15.7914 3.00682 16.1326C2.37696 16.4963 1.87457 17.0399 1.43967 17.6997C1.43967 17.6997 3.58418 18.0971 4.77266 19.2556C5.90491 20.3616 7.94445 22.0038 10.6888 21.9963V22H11.5361V21.9963C14.2768 22 16.3125 20.3616 17.4448 19.2556C18.6333 18.0934 20.7778 17.6997 20.7778 17.6997C20.3429 17.0436 19.8405 16.4963 19.2106 16.1326C19.8142 15.7877 20.4629 15.6977 21.1489 15.8252ZM15.469 15.9339C15.469 15.9339 17.1561 16.8262 15.6977 18.622C14.9066 19.593 13.6282 20.0579 12.6196 20.2829C11.6111 20.4966 10.5988 20.4966 9.58657 20.2829C8.57805 20.0617 7.29959 19.593 6.50852 18.622C5.0501 16.8262 6.73722 15.9339 6.73722 15.9339C3.01057 13.2607 4.60395 9.18166 7.2621 9.0317C9.924 8.88173 11.1012 10.9963 11.1012 10.9963C11.1012 10.9963 12.2785 8.88173 14.9366 9.0317C17.6022 9.18166 19.1956 13.2607 15.469 15.9339Z" fill="white"/>
<path d="M15.6978 18.6183C14.9067 19.5893 13.6282 20.0542 12.6197 20.2791C11.6112 20.4928 10.5989 20.4928 9.58664 20.2791C8.57812 20.0579 7.29966 19.5893 6.50859 18.6183C5.05018 16.8224 6.73729 15.9301 6.73729 15.9301C3.01064 13.257 4.60403 9.17791 7.26217 9.02794C9.92407 8.87797 11.1013 10.9925 11.1013 10.9925C11.1013 10.9925 12.2785 8.87797 14.9367 9.02794C17.5986 9.17416 19.192 13.2532 15.4653 15.9301C15.4691 15.9339 17.1562 16.8224 15.6978 18.6183Z" fill="#102B1F"/>
<path d="M8.58565 17.9847C10.0741 19.0044 12.3723 18.9369 13.6245 17.5573C13.8007 17.366 13.9469 17.1486 14.0632 16.9236C13.6358 17.2086 13.2308 17.4635 12.7959 17.6435C11.4612 18.2171 10.0178 18.1459 8.58565 17.9847Z" fill="white"/>
<path d="M9.44048 12.3797C9.44048 12.0123 9.30176 11.6786 9.08056 11.4237C9.09931 11.4911 9.1068 11.5586 9.1068 11.6336C9.1068 12.0873 8.73939 12.4584 8.28199 12.4584C7.82459 12.4584 7.45718 12.091 7.45718 11.6336C7.45718 11.3374 7.61089 11.0825 7.84709 10.9363C7.10851 11.0075 6.53489 11.6261 6.53489 12.3834C6.53489 13.1858 7.18724 13.8381 7.98956 13.8381C8.79188 13.8344 9.44048 13.182 9.44048 12.3797Z" fill="white"/>
<path d="M15.3416 11.6299C15.3416 12.0835 14.9742 12.4547 14.5168 12.4547C14.0631 12.4547 13.692 12.0872 13.692 11.6299C13.692 11.3337 13.8457 11.0787 14.0819 10.9325C13.3433 11.0037 12.7697 11.6224 12.7697 12.3797C12.7697 13.182 13.422 13.8344 14.2244 13.8344C15.0267 13.8344 15.679 13.182 15.679 12.3797C15.679 12.0123 15.5403 11.6786 15.3191 11.4237C15.3304 11.4911 15.3416 11.5586 15.3416 11.6299Z" fill="white"/>
<path d="M10.314 15.5814C10.5625 15.5814 10.7639 15.422 10.7639 15.2253C10.7639 15.0286 10.5625 14.8691 10.314 14.8691C10.0656 14.8691 9.86414 15.0286 9.86414 15.2253C9.86414 15.422 10.0656 15.5814 10.314 15.5814Z" fill="white"/>
<path d="M11.8962 15.5814C12.1447 15.5814 12.3461 15.422 12.3461 15.2253C12.3461 15.0286 12.1447 14.8691 11.8962 14.8691C11.6478 14.8691 11.4463 15.0286 11.4463 15.2253C11.4463 15.422 11.6478 15.5814 11.8962 15.5814Z" fill="white"/>
</svg>
