<svg width="16" height="14" viewBox="0 0 16 14" fill="none" xmlns="http://www.w3.org/2000/svg">
<path d="M1.33333 8.66667V6.33333C1.33333 4.46649 1.33333 3.53307 1.69664 2.82003C2.01622 2.19282 2.52615 1.68289 3.15336 1.36331C3.8664 1 4.79982 1 6.66666 1H9C9.93188 1 10.3978 1 10.7654 1.15224C11.2554 1.35523 11.6448 1.74458 11.8478 2.23463C11.986 2.56834 11.9987 2.98316 11.9999 3.7542M1.33333 8.66667C1.33333 9.55314 1.33333 10.3297 1.58706 10.9423C1.92538 11.759 2.57429 12.408 3.39105 12.7463C4.00362 13 4.78019 13 6.33333 13H9.66666C11.2198 13 11.9964 13 12.6089 12.7463C13.4257 12.408 14.0746 11.759 14.4129 10.9423C14.6667 10.3297 14.6667 9.55314 14.6667 8.66667C14.6667 7.11353 14.6667 6.33696 14.4129 5.72439C14.0746 4.90763 13.4257 4.25871 12.6089 3.9204C12.426 3.84462 12.2284 3.79147 11.9999 3.7542M1.33333 8.66667C1.33333 7.11353 1.33333 6.33696 1.58706 5.72439C1.92538 4.90763 2.57429 4.25871 3.39105 3.9204C4.00362 3.66667 4.78019 3.66667 6.33333 3.66667H9.66666C10.7559 3.66667 11.4632 3.66667 11.9999 3.7542M9.33333 7H11.3333" stroke="#F3F5F5" stroke-width="1.06667" stroke-linecap="round" stroke-linejoin="round"/>
</svg>
